<svg  width="25" height="24" viewBox="0 0 25 24" fill="none" xmlns="http://www.w3.org/2000/svg">
<circle cx="12.293" cy="12" r="12" fill="#FFFCE4"/>
<path d="M13.8102 7.0105V8.72466" stroke="#FFE70B" stroke-linecap="round" stroke-linejoin="round"/>
<path d="M13.8102 16.5798V18.0135" stroke="#FFE70B" stroke-linecap="round" stroke-linejoin="round"/>
<path d="M13.8102 14.1463V10.7314" stroke="#FFE70B" stroke-linecap="round" stroke-linejoin="round"/>
<path fill-rule="evenodd" clip-rule="evenodd" 
d="M15.528 2.973a.75.75 0 0 1 .472.696v8.662a.75.75 0 0 1-.472.696l-7.25 2.9a.75.75 0 0
 1-.557 0l-7.25-2.9A.75.75 0 0 1 0 12.331V3.669a.75.75 0 0 1 .471-.696L7.443.184l.004-.001.274-
 .11a.75.75 0 0 1 .558 0l.274.11.004.001 6.971 2.789Zm-1.374.527L8 5.962 1.846 3.5 1 3.839v.4l6.5
  2.6v7.922l.5.2.5-.2V6.84l6.5-2.6v-.4l-.846-.339Z" stroke="#FFE70B"
  stroke-linecap="round" stroke-linejoin="round"/>

    <!-- <path fill-rule="evenodd" d="M15.528 2.973a.75.75 0 0 1 .472.696v8.662a.75.75 0 0 1-.472.696l-7.25 2.9a.75.75 0 0 1-.557 0l-7.25-2.9A.75.75 0 0 1 0 12.331V3.669a.75.75 0 0 1 .471-.696L7.443.184l.004-.001.274-.11a.75.75 0 0 1 .558 0l.274.11.004.001 6.971 2.789Zm-1.374.527L8 5.962 1.846 3.5 1 3.839v.4l6.5 2.6v7.922l.5.2.5-.2V6.84l6.5-2.6v-.4l-.846-.339Z"/> -->

</svg>





